<svg xmlns="http://www.w3.org/2000/svg" xmlns:xlink="http://www.w3.org/1999/xlink" width="500" zoomAndPan="magnify" viewBox="0 0 375 374.999991" height="500" preserveAspectRatio="xMidYMid meet" version="1.0"><defs><clipPath id="63901f0073"><path d="M 24.375 31 L 338 31 L 338 344.101562 L 24.375 344.101562 Z M 24.375 31 " clip-rule="nonzero"/></clipPath></defs><g clip-path="url(#63901f0073)"><path fill="#ffffff" d="M 299.464844 120.433594 C 264.640625 85.613281 213.789062 73.300781 166.722656 88.3125 C 158.804688 90.839844 151.117188 94.128906 143.875 98.089844 L 152.914062 114.628906 C 159.109375 111.246094 165.679688 108.433594 172.457031 106.273438 C 212.761719 93.425781 256.3125 103.949219 286.136719 133.765625 C 329.898438 177.53125 329.898438 248.746094 286.136719 292.511719 C 242.363281 336.28125 171.148438 336.273438 127.386719 292.511719 C 106.222656 271.351562 94.5625 243.160156 94.5625 213.136719 C 94.5625 186.292969 103.910156 160.925781 121.015625 140.726562 L 134.652344 154.359375 C 138.9375 158.644531 139.691406 165.292969 136.542969 170.472656 C 117.324219 202.09375 121.335938 243.960938 148.636719 271.261719 C 164.660156 287.285156 185.707031 295.296875 206.761719 295.296875 C 227.8125 295.296875 248.855469 287.285156 264.882812 271.261719 C 296.933594 239.210938 296.933594 187.058594 264.882812 155.015625 C 241.496094 131.625 206.542969 124.554688 175.828125 136.984375 L 182.898438 154.457031 C 206.574219 144.867188 233.53125 150.328125 251.554688 168.347656 C 276.253906 193.042969 276.253906 233.230469 251.554688 257.933594 C 226.847656 282.632812 186.664062 282.621094 161.964844 257.933594 C 144.484375 240.453125 139.417969 215.226562 146.707031 193.21875 C 149.765625 183.980469 161.515625 181.226562 168.394531 188.105469 L 177.527344 197.238281 C 170.667969 209.863281 172.550781 226.019531 183.214844 236.683594 C 189.707031 243.171875 198.234375 246.421875 206.757812 246.421875 C 215.28125 246.421875 223.8125 243.171875 230.300781 236.683594 C 243.28125 223.703125 243.28125 202.582031 230.304688 189.601562 L 230.300781 189.601562 C 224.015625 183.308594 215.648438 179.847656 206.757812 179.847656 C 201.101562 179.847656 195.667969 181.257812 190.84375 183.894531 L 124.828125 117.878906 L 138.117188 87.441406 C 139.667969 83.886719 138.882812 79.746094 136.144531 77.003906 L 93.03125 33.890625 C 90.832031 31.683594 87.6875 30.710938 84.613281 31.292969 C 81.554688 31.871094 78.976562 33.925781 77.726562 36.785156 L 63.347656 69.722656 L 30.40625 84.105469 C 27.550781 85.351562 25.492188 87.929688 24.917969 90.996094 C 24.335938 94.054688 25.308594 97.207031 27.511719 99.410156 L 70.625 142.523438 C 72.429688 144.328125 74.84375 145.285156 77.292969 145.285156 C 78.566406 145.285156 79.851562 145.027344 81.0625 144.5 L 100.851562 135.859375 C 84.539062 158.140625 75.714844 184.945312 75.710938 213.140625 C 75.710938 248.199219 89.332031 281.125 114.058594 305.84375 C 139.617188 331.402344 173.183594 344.179688 206.761719 344.179688 C 240.335938 344.179688 273.90625 331.402344 299.464844 305.84375 C 350.582031 254.726562 350.578125 171.550781 299.464844 120.4375 Z M 89.472656 56.996094 L 118.269531 85.789062 L 110.511719 103.558594 L 88.492188 81.542969 L 81.71875 74.765625 Z M 50.617188 95.851562 L 68.382812 88.097656 L 97.179688 116.890625 L 79.414062 124.648438 Z M 50.617188 95.851562 " fill-opacity="1" fill-rule="nonzero"/></g></svg>