<svg xmlns="http://www.w3.org/2000/svg" xmlns:xlink="http://www.w3.org/1999/xlink" width="500" zoomAndPan="magnify" viewBox="0 0 375 374.999991" height="500" preserveAspectRatio="xMidYMid meet" version="1.0"><defs><clipPath id="1fa665df7a"><path d="M 23.832031 26.605469 L 350.832031 26.605469 L 350.832031 348.355469 L 23.832031 348.355469 Z M 23.832031 26.605469 " clip-rule="nonzero"/></clipPath></defs><g clip-path="url(#1fa665df7a)"><path fill="#ffffff" d="M 187.914062 -67.667969 C 258.667969 -67.667969 322.726562 -38.992188 369.105469 7.375 C 415.484375 53.742188 444.160156 117.804688 444.160156 188.566406 C 444.160156 259.320312 415.484375 323.378906 369.105469 369.757812 C 322.726562 416.136719 258.675781 444.804688 187.914062 444.804688 C 117.160156 444.804688 53.101562 416.125 6.722656 369.757812 C -39.65625 323.390625 -68.324219 259.320312 -68.324219 188.566406 C -68.324219 117.8125 -39.644531 53.753906 6.722656 7.375 C 53.089844 -39.003906 117.160156 -67.667969 187.914062 -67.667969 Z M 359.035156 17.445312 C 315.242188 -26.351562 254.75 -53.4375 187.914062 -53.4375 C 121.089844 -53.4375 60.585938 -26.351562 16.789062 17.445312 C -27.003906 61.238281 -54.089844 121.730469 -54.089844 188.566406 C -54.089844 255.390625 -27.003906 315.894531 16.789062 359.691406 C 60.585938 403.484375 121.078125 430.570312 187.914062 430.570312 C 254.738281 430.570312 315.242188 403.484375 359.035156 359.691406 C 402.832031 315.894531 429.917969 255.402344 429.917969 188.566406 C 429.917969 121.742188 402.832031 61.238281 359.035156 17.445312 Z M 359.035156 17.445312 " fill-opacity="1" fill-rule="nonzero"/></g><path fill="#ffffff" d="M 71.902344 83.328125 L 71.902344 45.46875 L 61.460938 45.46875 C 48.019531 45.46875 37.03125 56.464844 37.03125 69.898438 L 37.03125 83.316406 L 71.902344 83.316406 Z M 71.902344 83.328125 " fill-opacity="1" fill-rule="evenodd"/><path fill="#ffffff" d="M 77.605469 45.46875 L 109.632812 45.46875 L 109.632812 83.328125 L 77.605469 83.328125 Z M 77.605469 45.46875 " fill-opacity="1" fill-rule="evenodd"/><path fill="#ffffff" d="M 115.324219 45.46875 L 147.355469 45.46875 L 147.355469 83.328125 L 115.324219 83.328125 Z M 115.324219 45.46875 " fill-opacity="1" fill-rule="evenodd"/><path fill="#ffffff" d="M 153.042969 45.46875 L 185.074219 45.46875 L 185.074219 83.328125 L 153.042969 83.328125 Z M 153.042969 45.46875 " fill-opacity="1" fill-rule="evenodd"/><path fill="#ffffff" d="M 190.765625 45.46875 L 222.792969 45.46875 L 222.792969 83.328125 L 190.765625 83.328125 Z M 190.765625 45.46875 " fill-opacity="1" fill-rule="evenodd"/><path fill="#ffffff" d="M 228.484375 45.46875 L 260.515625 45.46875 L 260.515625 83.328125 L 228.484375 83.328125 Z M 228.484375 45.46875 " fill-opacity="1" fill-rule="evenodd"/><path fill="#ffffff" d="M 266.203125 45.46875 L 298.234375 45.46875 L 298.234375 83.328125 L 266.203125 83.328125 Z M 266.203125 45.46875 " fill-opacity="1" fill-rule="evenodd"/><path fill="#ffffff" d="M 338.792969 83.328125 L 338.792969 69.90625 C 338.792969 56.464844 327.796875 45.480469 314.367188 45.480469 L 303.925781 45.480469 L 303.925781 83.339844 L 338.792969 83.339844 Z M 338.792969 83.328125 " fill-opacity="1" fill-rule="evenodd"/><path fill="#ffffff" d="M 71.902344 293.804688 L 71.902344 331.664062 L 61.460938 331.664062 C 48.019531 331.664062 37.03125 320.667969 37.03125 307.234375 L 37.03125 293.816406 L 71.902344 293.816406 Z M 71.902344 293.804688 " fill-opacity="1" fill-rule="evenodd"/><path fill="#ffffff" d="M 77.605469 293.804688 L 109.632812 293.804688 L 109.632812 331.664062 L 77.605469 331.664062 Z M 77.605469 293.804688 " fill-opacity="1" fill-rule="evenodd"/><path fill="#ffffff" d="M 115.324219 293.804688 L 147.355469 293.804688 L 147.355469 331.664062 L 115.324219 331.664062 Z M 115.324219 293.804688 " fill-opacity="1" fill-rule="evenodd"/><path fill="#ffffff" d="M 153.042969 293.804688 L 185.074219 293.804688 L 185.074219 331.664062 L 153.042969 331.664062 Z M 153.042969 293.804688 " fill-opacity="1" fill-rule="evenodd"/><path fill="#ffffff" d="M 190.765625 293.804688 L 222.792969 293.804688 L 222.792969 331.664062 L 190.765625 331.664062 Z M 190.765625 293.804688 " fill-opacity="1" fill-rule="evenodd"/><path fill="#ffffff" d="M 228.484375 293.804688 L 260.515625 293.804688 L 260.515625 331.664062 L 228.484375 331.664062 Z M 228.484375 293.804688 " fill-opacity="1" fill-rule="evenodd"/><path fill="#ffffff" d="M 266.203125 293.804688 L 298.234375 293.804688 L 298.234375 331.664062 L 266.203125 331.664062 Z M 266.203125 293.804688 " fill-opacity="1" fill-rule="evenodd"/><path fill="#ffffff" d="M 338.792969 293.804688 L 338.792969 307.226562 C 338.792969 320.667969 327.796875 331.652344 314.367188 331.652344 L 303.925781 331.652344 L 303.925781 293.792969 L 338.792969 293.792969 Z M 338.792969 293.804688 " fill-opacity="1" fill-rule="evenodd"/><path fill="#ffffff" d="M 338.792969 288.113281 L 338.792969 89.019531 L 37.03125 89.019531 L 37.03125 288.105469 L 338.792969 288.105469 Z M 175.902344 164.128906 C 169.175781 170.789062 162.589844 177.570312 156.066406 184.425781 C 152.585938 180.742188 149.445312 177.386719 146.722656 174.507812 C 135.578125 178.476562 122.660156 176 113.734375 167.085938 C 101.390625 154.742188 101.390625 134.726562 113.734375 122.382812 C 126.074219 110.042969 146.09375 110.042969 158.4375 122.382812 C 167.105469 131.050781 169.6875 143.5 166.1875 154.421875 Z M 147.917969 156.570312 C 141.386719 163.101562 130.785156 163.101562 124.25 156.570312 C 117.714844 150.035156 117.714844 139.433594 124.25 132.898438 C 130.785156 126.367188 141.386719 126.367188 147.917969 132.898438 C 154.453125 139.433594 154.453125 150.023438 147.917969 156.570312 Z M 200.339844 188.566406 L 179.925781 208.980469 L 166.1875 222.722656 C 169.6875 233.644531 167.105469 246.09375 158.4375 254.761719 C 146.09375 267.101562 126.074219 267.101562 113.734375 254.761719 C 101.390625 242.417969 101.390625 222.402344 113.734375 210.058594 C 122.660156 201.132812 135.578125 198.667969 146.722656 202.636719 C 150.4375 198.699219 154.921875 193.894531 159.984375 188.578125 C 165.960938 182.300781 172.730469 175.296875 179.925781 168.164062 C 212.671875 135.730469 254.355469 100.550781 271.351562 117.558594 Z M 124.25 220.5625 C 130.785156 214.03125 141.386719 214.03125 147.917969 220.5625 C 154.453125 227.097656 154.453125 237.699219 147.917969 244.234375 C 141.386719 250.769531 130.785156 250.769531 124.25 244.234375 C 117.714844 237.699219 117.714844 227.097656 124.25 220.5625 Z M 184.347656 184.382812 C 186.652344 186.6875 186.652344 190.433594 184.347656 192.753906 C 182.042969 195.058594 178.292969 195.058594 175.976562 192.753906 C 173.671875 190.445312 173.671875 186.699219 175.976562 184.382812 C 178.285156 182.074219 182.03125 182.074219 184.347656 184.382812 Z M 183.984375 212.960938 L 204.355469 192.59375 L 271.351562 259.585938 C 255.046875 275.890625 216.035156 244.203125 183.984375 212.960938 Z M 183.984375 212.960938 " fill-opacity="1" fill-rule="evenodd"/></svg>