<svg xmlns="http://www.w3.org/2000/svg" xmlns:xlink="http://www.w3.org/1999/xlink" width="500" zoomAndPan="magnify" viewBox="0 0 375 374.999991" height="500" preserveAspectRatio="xMidYMid meet" version="1.0"><defs><clipPath id="1f989ed0dc"><path d="M 17 53.835938 L 297 53.835938 L 297 320.835938 L 17 320.835938 Z M 17 53.835938 " clip-rule="nonzero"/></clipPath></defs><g clip-path="url(#1f989ed0dc)"><path fill="#ffffff" d="M 220.3125 53.835938 C 182.335938 53.835938 150.828125 81.472656 144.78125 117.730469 L 135.390625 119.515625 C 124.347656 100.859375 104.027344 88.347656 80.773438 88.347656 C 45.730469 88.347656 17.339844 116.738281 17.339844 151.777344 C 17.339844 181.574219 37.871094 206.550781 65.5625 213.367188 L 65.5625 220.453125 L 52.714844 220.453125 L 52.65625 219.878906 L 37.445312 214.230469 L 26.789062 214.230469 L 43.613281 249.261719 L 49.832031 247.589844 L 53.289062 241.945312 L 65.5625 241.945312 L 65.5625 321.164062 L 286.042969 321.164062 L 286.042969 189.457031 L 269.105469 189.457031 C 286.097656 175.40625 296.933594 154.171875 296.933594 130.402344 C 296.933594 88.097656 262.609375 53.835938 220.308594 53.835938 Z M 153.769531 168.316406 C 158.371094 176.386719 164.390625 183.570312 171.515625 189.460938 L 131.820312 189.460938 C 135.976562 183.835938 139.199219 177.503906 141.324219 170.675781 Z M 263.925781 294.546875 C 267.746094 294.546875 270.839844 297.640625 270.839844 301.460938 C 270.839844 305.277344 267.746094 308.375 263.925781 308.375 C 260.109375 308.375 257.011719 305.277344 257.011719 301.460938 C 257.011719 297.640625 260.109375 294.546875 263.925781 294.546875 Z M 263.925781 294.546875 " fill-opacity="1" fill-rule="nonzero"/></g><path fill="#000000" d="M 219.207031 89.914062 C 197.824219 89.914062 180.492188 107.25 180.492188 128.632812 C 180.492188 150.015625 197.824219 167.347656 219.207031 167.347656 C 240.589844 167.347656 257.925781 150.015625 257.925781 128.632812 C 257.925781 107.25 240.589844 89.914062 219.207031 89.914062 Z M 215.511719 101.34375 C 218.976562 101.34375 221.796875 104.128906 221.796875 107.59375 C 221.796875 111.058594 218.976562 113.878906 215.511719 113.878906 C 212.046875 113.878906 209.226562 111.058594 209.226562 107.59375 C 209.226562 104.128906 212.046875 101.34375 215.511719 101.34375 Z M 234.902344 113.105469 C 238.367188 113.105469 241.1875 115.925781 241.1875 119.390625 C 241.1875 122.855469 238.367188 125.675781 234.902344 125.675781 C 231.4375 125.675781 228.617188 122.855469 228.617188 119.390625 C 228.617188 115.925781 231.4375 113.105469 234.902344 113.105469 Z M 200.691406 118.046875 C 204.15625 118.046875 206.941406 120.867188 206.941406 124.332031 C 206.941406 127.796875 204.15625 130.613281 200.691406 130.613281 C 197.222656 130.613281 194.40625 127.796875 194.40625 124.332031 C 194.40625 120.867188 197.222656 118.046875 200.691406 118.046875 Z M 232.617188 135.1875 C 236.082031 135.1875 238.902344 137.972656 238.902344 141.4375 C 238.902344 144.902344 236.082031 147.722656 232.617188 147.722656 C 229.152344 147.722656 226.332031 144.902344 226.332031 141.4375 C 226.332031 137.972656 229.152344 135.1875 232.617188 135.1875 Z M 209.429688 138.984375 C 212.894531 138.984375 215.714844 141.769531 215.714844 145.234375 C 215.714844 148.699219 212.894531 151.519531 209.429688 151.519531 C 205.964844 151.519531 203.144531 148.699219 203.144531 145.234375 C 203.144531 141.769531 205.964844 138.984375 209.429688 138.984375 Z M 209.429688 138.984375 " fill-opacity="1" fill-rule="nonzero"/><path fill="#000000" d="M 80.933594 117.570312 C 63.625 117.570312 49.59375 131.601562 49.59375 148.910156 C 49.59375 166.222656 63.625 180.253906 80.933594 180.253906 C 98.242188 180.253906 112.277344 166.222656 112.277344 148.910156 C 112.277344 131.601562 98.242188 117.570312 80.933594 117.570312 Z M 77.941406 126.820312 C 80.746094 126.820312 83.027344 129.074219 83.027344 131.882812 C 83.027344 134.6875 80.746094 136.96875 77.941406 136.96875 C 75.136719 136.96875 72.855469 134.6875 72.855469 131.882812 C 72.855469 129.074219 75.136719 126.820312 77.941406 126.820312 Z M 93.640625 136.34375 C 96.445312 136.34375 98.726562 138.625 98.726562 141.429688 C 98.726562 144.234375 96.445312 146.519531 93.640625 146.519531 C 90.835938 146.519531 88.550781 144.234375 88.550781 141.429688 C 88.550781 138.625 90.835938 136.34375 93.640625 136.34375 Z M 65.941406 140.34375 C 68.746094 140.34375 71.003906 142.625 71.003906 145.429688 C 71.003906 148.234375 68.746094 150.515625 65.941406 150.515625 C 63.136719 150.515625 60.855469 148.234375 60.855469 145.429688 C 60.855469 142.625 63.136719 140.34375 65.941406 140.34375 Z M 91.789062 154.21875 C 94.59375 154.21875 96.875 156.472656 96.875 159.277344 C 96.875 162.082031 94.59375 164.367188 91.789062 164.367188 C 88.984375 164.367188 86.699219 162.082031 86.699219 159.277344 C 86.699219 156.472656 88.984375 154.21875 91.789062 154.21875 Z M 73.015625 157.292969 C 75.820312 157.292969 78.105469 159.546875 78.105469 162.351562 C 78.105469 165.15625 75.820312 167.441406 73.015625 167.441406 C 70.210938 167.441406 67.929688 165.15625 67.929688 162.351562 C 67.929688 159.546875 70.210938 157.292969 73.015625 157.292969 Z M 73.015625 157.292969 " fill-opacity="1" fill-rule="nonzero"/><path fill="#ffffff" d="M 357.648438 181.339844 L 318.757812 204.90625 L 288.335938 204.90625 L 288.335938 263.613281 L 318.757812 263.613281 L 357.648438 287.179688 Z M 357.648438 181.339844 " fill-opacity="1" fill-rule="nonzero"/></svg>