<svg xmlns="http://www.w3.org/2000/svg" xmlns:xlink="http://www.w3.org/1999/xlink" width="500" zoomAndPan="magnify" viewBox="0 0 375 374.999991" height="500" preserveAspectRatio="xMidYMid meet" version="1.0"><defs><clipPath id="789634a2c4"><path d="M 0.816406 0 L 372.183594 0 L 372.183594 375 L 0.816406 375 Z M 0.816406 0 " clip-rule="nonzero"/></clipPath><clipPath id="4b03f9e7d9"><path d="M 75.816406 0 L 297.183594 0 C 317.074219 0 336.148438 7.902344 350.214844 21.96875 C 364.28125 36.03125 372.183594 55.109375 372.183594 75 L 372.183594 300 C 372.183594 319.890625 364.28125 338.96875 350.214844 353.03125 C 336.148438 367.097656 317.074219 375 297.183594 375 L 75.816406 375 C 55.925781 375 36.851562 367.097656 22.785156 353.03125 C 8.71875 338.96875 0.816406 319.890625 0.816406 300 L 0.816406 75 C 0.816406 55.109375 8.71875 36.03125 22.785156 21.96875 C 36.851562 7.902344 55.925781 0 75.816406 0 Z M 75.816406 0 " clip-rule="nonzero"/></clipPath><clipPath id="7993d0e6d0"><path d="M 0.816406 0 L 372.183594 0 L 372.183594 375 L 0.816406 375 Z M 0.816406 0 " clip-rule="nonzero"/></clipPath><clipPath id="49da1983c5"><path d="M 75.816406 0 L 297.183594 0 C 317.074219 0 336.148438 7.902344 350.214844 21.96875 C 364.28125 36.03125 372.183594 55.109375 372.183594 75 L 372.183594 300 C 372.183594 319.890625 364.28125 338.96875 350.214844 353.03125 C 336.148438 367.097656 317.074219 375 297.183594 375 L 75.816406 375 C 55.925781 375 36.851562 367.097656 22.785156 353.03125 C 8.71875 338.96875 0.816406 319.890625 0.816406 300 L 0.816406 75 C 0.816406 55.109375 8.71875 36.03125 22.785156 21.96875 C 36.851562 7.902344 55.925781 0 75.816406 0 Z M 75.816406 0 " clip-rule="nonzero"/></clipPath><clipPath id="d0c8100df3"><rect x="0" width="373" y="0" height="375"/></clipPath><clipPath id="b901842d7e"><path d="M 43.964844 121 L 108 121 L 108 256 L 43.964844 256 Z M 43.964844 121 " clip-rule="nonzero"/></clipPath><clipPath id="3145f2239d"><path d="M 43.964844 75.714844 L 43.964844 299.285156 C 43.964844 307.4375 47.207031 315.261719 52.972656 321.027344 C 58.738281 326.792969 66.5625 330.035156 74.714844 330.035156 L 298.285156 330.035156 C 306.4375 330.035156 314.261719 326.792969 320.027344 321.027344 C 325.792969 315.261719 329.035156 307.4375 329.035156 299.285156 L 329.035156 75.714844 C 329.035156 67.5625 325.792969 59.738281 320.027344 53.972656 C 314.261719 48.207031 306.4375 44.964844 298.285156 44.964844 L 74.714844 44.964844 C 66.5625 44.964844 58.738281 48.207031 52.972656 53.972656 C 47.207031 59.738281 43.964844 67.5625 43.964844 75.714844 Z M 43.964844 75.714844 " clip-rule="nonzero"/></clipPath><clipPath id="569aabe3b2"><path d="M 189 160 L 329.035156 160 L 329.035156 299 L 189 299 Z M 189 160 " clip-rule="nonzero"/></clipPath><clipPath id="1b35390da4"><path d="M 43.964844 75.714844 L 43.964844 299.285156 C 43.964844 307.4375 47.207031 315.261719 52.972656 321.027344 C 58.738281 326.792969 66.5625 330.035156 74.714844 330.035156 L 298.285156 330.035156 C 306.4375 330.035156 314.261719 326.792969 320.027344 321.027344 C 325.792969 315.261719 329.035156 307.4375 329.035156 299.285156 L 329.035156 75.714844 C 329.035156 67.5625 325.792969 59.738281 320.027344 53.972656 C 314.261719 48.207031 306.4375 44.964844 298.285156 44.964844 L 74.714844 44.964844 C 66.5625 44.964844 58.738281 48.207031 52.972656 53.972656 C 47.207031 59.738281 43.964844 67.5625 43.964844 75.714844 Z M 43.964844 75.714844 " clip-rule="nonzero"/></clipPath><clipPath id="5a5ffc29cf"><path d="M 60 217 L 276 217 L 276 330.035156 L 60 330.035156 Z M 60 217 " clip-rule="nonzero"/></clipPath><clipPath id="1dc29dc0b4"><path d="M 43.964844 75.714844 L 43.964844 299.285156 C 43.964844 307.4375 47.207031 315.261719 52.972656 321.027344 C 58.738281 326.792969 66.5625 330.035156 74.714844 330.035156 L 298.285156 330.035156 C 306.4375 330.035156 314.261719 326.792969 320.027344 321.027344 C 325.792969 315.261719 329.035156 307.4375 329.035156 299.285156 L 329.035156 75.714844 C 329.035156 67.5625 325.792969 59.738281 320.027344 53.972656 C 314.261719 48.207031 306.4375 44.964844 298.285156 44.964844 L 74.714844 44.964844 C 66.5625 44.964844 58.738281 48.207031 52.972656 53.972656 C 47.207031 59.738281 43.964844 67.5625 43.964844 75.714844 Z M 43.964844 75.714844 " clip-rule="nonzero"/></clipPath><clipPath id="32055d8a6c"><path d="M 59 44.964844 L 278 44.964844 L 278 160 L 59 160 Z M 59 44.964844 " clip-rule="nonzero"/></clipPath><clipPath id="a7d33a66a4"><path d="M 43.964844 75.714844 L 43.964844 299.285156 C 43.964844 307.4375 47.207031 315.261719 52.972656 321.027344 C 58.738281 326.792969 66.5625 330.035156 74.714844 330.035156 L 298.285156 330.035156 C 306.4375 330.035156 314.261719 326.792969 320.027344 321.027344 C 325.792969 315.261719 329.035156 307.4375 329.035156 299.285156 L 329.035156 75.714844 C 329.035156 67.5625 325.792969 59.738281 320.027344 53.972656 C 314.261719 48.207031 306.4375 44.964844 298.285156 44.964844 L 74.714844 44.964844 C 66.5625 44.964844 58.738281 48.207031 52.972656 53.972656 C 47.207031 59.738281 43.964844 67.5625 43.964844 75.714844 Z M 43.964844 75.714844 " clip-rule="nonzero"/></clipPath><clipPath id="8e1a87147b"><rect x="0" width="373" y="0" height="375"/></clipPath></defs><g transform="matrix(1, 0, 0, 1, 1, 0)"><g clip-path="url(#8e1a87147b)"><g clip-path="url(#789634a2c4)"><g clip-path="url(#4b03f9e7d9)"><g transform="matrix(1, 0, 0, 1, -0.000000000000000222, 0)"><g clip-path="url(#d0c8100df3)"><g clip-path="url(#7993d0e6d0)"><g clip-path="url(#49da1983c5)"><path fill="#737373" d="M 0.816406 0 L 372.183594 0 L 372.183594 375.714844 L 0.816406 375.714844 Z M 0.816406 0 " fill-opacity="1" fill-rule="nonzero"/></g></g></g></g></g></g><g clip-path="url(#b901842d7e)"><g clip-path="url(#3145f2239d)"><path fill="#7d7d7d" d="M 107.144531 217.234375 L 97.21875 254.28125 L 60.953125 255.046875 C 50.113281 234.941406 43.964844 211.941406 43.964844 187.5 C 43.964844 163.863281 49.714844 141.574219 59.902344 121.949219 L 59.910156 121.949219 L 92.199219 127.871094 L 106.34375 159.964844 C 103.382812 168.59375 101.769531 177.859375 101.769531 187.5 C 101.769531 197.960938 103.667969 207.988281 107.144531 217.234375 Z M 107.144531 217.234375 " fill-opacity="1" fill-rule="nonzero"/></g></g><g clip-path="url(#569aabe3b2)"><g clip-path="url(#1b35390da4)"><path fill="#a4a4a4" d="M 326.542969 160.871094 C 328.179688 169.496094 329.035156 178.398438 329.035156 187.5 C 329.035156 197.703125 327.960938 207.660156 325.917969 217.261719 C 318.980469 249.933594 300.847656 278.464844 275.734375 298.652344 L 275.726562 298.644531 L 235.054688 296.570312 L 229.300781 260.640625 C 245.964844 250.863281 258.988281 235.570312 265.851562 217.261719 L 189.632812 217.261719 L 189.632812 160.871094 Z M 326.542969 160.871094 " fill-opacity="1" fill-rule="nonzero"/></g></g><g clip-path="url(#5a5ffc29cf)"><g clip-path="url(#1dc29dc0b4)"><path fill="#525252" d="M 275.722656 298.644531 L 275.730469 298.652344 C 251.304688 318.285156 220.277344 330.035156 186.5 330.035156 C 132.21875 330.035156 85.027344 299.695312 60.953125 255.046875 L 107.144531 217.238281 C 119.179688 249.363281 150.167969 272.230469 186.5 272.230469 C 202.117188 272.230469 216.746094 268.007812 229.300781 260.640625 Z M 275.722656 298.644531 " fill-opacity="1" fill-rule="nonzero"/></g></g><g clip-path="url(#32055d8a6c)"><g clip-path="url(#a7d33a66a4)"><path fill="#939393" d="M 277.480469 77.78125 L 231.304688 115.582031 C 218.3125 107.460938 202.953125 102.769531 186.5 102.769531 C 149.347656 102.769531 117.777344 126.6875 106.34375 159.964844 L 59.910156 121.949219 L 59.902344 121.949219 C 83.625 76.214844 131.414062 44.964844 186.5 44.964844 C 221.082031 44.964844 252.792969 57.285156 277.480469 77.78125 Z M 277.480469 77.78125 " fill-opacity="1" fill-rule="nonzero"/></g></g></g></g></svg>