<svg xmlns="http://www.w3.org/2000/svg" xmlns:xlink="http://www.w3.org/1999/xlink" width="500" zoomAndPan="magnify" viewBox="0 0 375 374.999991" height="500" preserveAspectRatio="xMidYMid meet" version="1.0"><defs><clipPath id="5f253e0e43"><path d="M 60.113281 9.023438 L 315 9.023438 L 315 366 L 60.113281 366 Z M 60.113281 9.023438 " clip-rule="nonzero"/></clipPath></defs><g clip-path="url(#5f253e0e43)"><path fill="#b4b4b4" d="M 225.710938 365.835938 L 149.28125 365.835938 C 100.109375 365.835938 60.113281 325.824219 60.113281 276.667969 L 60.113281 98.332031 C 60.113281 49.175781 100.109375 9.164062 149.28125 9.164062 L 225.710938 9.164062 C 274.878906 9.164062 314.878906 49.175781 314.878906 98.332031 L 314.878906 276.667969 C 314.878906 325.824219 274.878906 365.835938 225.710938 365.835938 Z M 149.28125 34.640625 C 114.160156 34.640625 85.589844 63.210938 85.589844 98.332031 L 85.589844 276.667969 C 85.589844 311.785156 114.160156 340.359375 149.28125 340.359375 L 225.710938 340.359375 C 260.828125 340.359375 289.402344 311.785156 289.402344 276.667969 L 289.402344 98.332031 C 289.402344 63.210938 260.828125 34.640625 225.710938 34.640625 Z M 149.28125 34.640625 " fill-opacity="1" fill-rule="nonzero"/></g><path fill="#b4b4b4" d="M 187.496094 60.117188 C 180.464844 60.117188 174.757812 65.808594 174.757812 72.855469 L 174.757812 111.070312 C 174.757812 118.113281 180.464844 123.808594 187.496094 123.808594 C 194.527344 123.808594 200.234375 118.113281 200.234375 111.070312 L 200.234375 72.855469 C 200.234375 65.808594 194.527344 60.117188 187.496094 60.117188 Z M 187.496094 60.117188 " fill-opacity="1" fill-rule="nonzero"/></svg>