<svg xmlns="http://www.w3.org/2000/svg" xmlns:xlink="http://www.w3.org/1999/xlink" width="500" zoomAndPan="magnify" viewBox="0 0 375 374.999991" height="500" preserveAspectRatio="xMidYMid meet" version="1.0"><defs><clipPath id="3ba55d98f6"><path d="M 7.148438 100 L 54 100 L 54 227 L 7.148438 227 Z M 7.148438 100 " clip-rule="nonzero"/></clipPath><clipPath id="1071b48284"><path d="M 65 75 L 283 75 L 283 347.988281 L 65 347.988281 Z M 65 75 " clip-rule="nonzero"/></clipPath></defs><g clip-path="url(#3ba55d98f6)"><path fill="#ffffff" d="M 8.566406 131.082031 C 7.890625 133.34375 7.675781 135.648438 7.917969 137.996094 C 8.164062 140.34375 8.847656 142.554688 9.976562 144.628906 L 53.746094 226.035156 L 53.746094 100.921875 L 17.210938 120.539062 C 15.128906 121.652344 13.335938 123.121094 11.839844 124.949219 C 10.339844 126.777344 9.25 128.820312 8.566406 131.082031 Z M 8.566406 131.082031 " fill-opacity="1" fill-rule="nonzero"/></g><path fill="#ffffff" d="M 234.519531 261.835938 C 234.003906 261.402344 233.429688 261.078125 232.796875 260.855469 C 232.160156 260.632812 231.507812 260.53125 230.835938 260.546875 C 230.164062 260.566406 229.519531 260.699219 228.894531 260.953125 C 228.273438 261.207031 227.714844 261.5625 227.222656 262.019531 C 211.066406 276.808594 135.886719 345.507812 135.886719 345.507812 C 135.886719 345.507812 274.671875 296.777344 275.46875 296.285156 C 272.1875 293.574219 234.519531 261.835938 234.519531 261.835938 Z M 234.519531 261.835938 " fill-opacity="1" fill-rule="nonzero"/><path fill="#ffffff" d="M 217.660156 63.652344 L 206.257812 39.007812 C 205.980469 38.5 205.679688 38.007812 205.351562 37.527344 C 205.027344 37.046875 204.675781 36.585938 204.304688 36.140625 C 203.933594 35.695312 203.542969 35.269531 203.128906 34.863281 C 202.714844 34.453125 202.285156 34.066406 201.832031 33.703125 C 201.382812 33.335938 200.914062 32.996094 200.433594 32.675781 C 199.949219 32.355469 199.449219 32.058594 198.9375 31.789062 C 198.425781 31.519531 197.902344 31.273438 197.363281 31.050781 C 196.828125 30.832031 196.28125 30.636719 195.726562 30.472656 C 195.171875 30.304688 194.609375 30.164062 194.039062 30.050781 C 193.472656 29.9375 192.898438 29.855469 192.320312 29.796875 C 191.742188 29.742188 191.164062 29.710938 190.585938 29.710938 C 190.003906 29.710938 189.425781 29.738281 188.851562 29.792969 C 188.273438 29.851562 187.699219 29.933594 187.128906 30.046875 C 186.5625 30.15625 186 30.296875 185.441406 30.460938 C 184.886719 30.628906 184.339844 30.820312 183.804688 31.042969 C 183.269531 31.261719 182.742188 31.503906 182.230469 31.777344 L 122.953125 63.652344 Z M 217.660156 63.652344 " fill-opacity="1" fill-rule="nonzero"/><g clip-path="url(#1071b48284)"><path fill="#ffffff" d="M 278.410156 189.070312 C 276.460938 190.867188 274.300781 192.351562 271.921875 193.519531 C 269.542969 194.6875 267.046875 195.496094 264.433594 195.9375 L 230.964844 206.542969 C 229.042969 207.140625 227.082031 207.339844 225.082031 207.136719 C 223.082031 206.933594 221.199219 206.347656 219.4375 205.378906 L 214.042969 200.105469 C 213.023438 198.378906 212.386719 196.515625 212.128906 194.527344 C 211.875 192.535156 212.023438 190.574219 212.574219 188.644531 C 213.417969 185.625 225.214844 145.277344 225.507812 143.957031 C 239.554688 129.652344 267.214844 101.28125 280.800781 87.3125 C 282.027344 80.324219 274.195312 75.886719 268.113281 75.910156 C 268.113281 75.910156 114.835938 75.808594 80.65625 75.910156 C 79.695312 75.910156 78.742188 76.003906 77.796875 76.195312 C 76.855469 76.382812 75.9375 76.660156 75.050781 77.027344 C 74.160156 77.394531 73.316406 77.847656 72.515625 78.382812 C 71.714844 78.914062 70.976562 79.523438 70.296875 80.203125 C 69.617188 80.882812 69.007812 81.625 68.472656 82.421875 C 67.941406 83.222656 67.488281 84.066406 67.121094 84.957031 C 66.753906 85.84375 66.472656 86.761719 66.285156 87.703125 C 66.097656 88.648438 66.003906 89.601562 66.003906 90.5625 C 65.976562 98.707031 66.019531 316.246094 66.003906 333.800781 C 66.003906 334.761719 66.097656 335.714844 66.285156 336.660156 C 66.472656 337.601562 66.753906 338.519531 67.121094 339.40625 C 67.488281 340.296875 67.941406 341.140625 68.472656 341.941406 C 69.007812 342.742188 69.617188 343.480469 70.296875 344.160156 C 70.976562 344.839844 71.714844 345.449219 72.515625 345.984375 C 73.316406 346.515625 74.160156 346.96875 75.050781 347.335938 C 75.9375 347.703125 76.855469 347.984375 77.796875 348.171875 C 78.742188 348.359375 79.695312 348.453125 80.65625 348.453125 L 114.492188 348.453125 C 130.832031 333.464844 200.605469 269.78125 219.011719 252.945312 C 219.800781 252.230469 220.648438 251.59375 221.554688 251.03125 C 222.460938 250.46875 223.40625 249.988281 224.398438 249.59375 C 225.390625 249.199219 226.40625 248.894531 227.449219 248.683594 C 228.496094 248.46875 229.550781 248.351562 230.617188 248.324219 C 231.683594 248.300781 232.742188 248.371094 233.792969 248.535156 C 234.847656 248.699219 235.878906 248.953125 236.886719 249.300781 C 237.894531 249.648438 238.863281 250.082031 239.792969 250.601562 C 240.726562 251.121094 241.601562 251.71875 242.425781 252.394531 L 282.578125 286.230469 C 282.753906 285.382812 282.835938 284.523438 282.824219 283.65625 L 282.824219 184.535156 C 281.890625 185.421875 279.277344 188.289062 278.410156 189.070312 Z M 105.726562 163.570312 L 171.195312 163.570312 C 171.59375 163.578125 171.988281 163.621094 172.378906 163.703125 C 172.769531 163.785156 173.148438 163.90625 173.515625 164.0625 C 173.878906 164.21875 174.230469 164.410156 174.558594 164.636719 C 174.886719 164.859375 175.191406 165.113281 175.472656 165.398438 C 175.75 165.683594 176 165.992188 176.222656 166.324219 C 176.441406 166.65625 176.625 167.007812 176.777344 167.375 C 176.929688 167.746094 177.042969 168.125 177.121094 168.515625 C 177.195312 168.90625 177.234375 169.300781 177.234375 169.699219 C 177.234375 170.097656 177.195312 170.496094 177.121094 170.886719 C 177.042969 171.277344 176.929688 171.65625 176.777344 172.027344 C 176.625 172.394531 176.441406 172.746094 176.222656 173.078125 C 176 173.410156 175.75 173.71875 175.472656 174.003906 C 175.191406 174.289062 174.886719 174.542969 174.558594 174.765625 C 174.230469 174.992188 173.878906 175.179688 173.515625 175.339844 C 173.148438 175.496094 172.769531 175.613281 172.378906 175.699219 C 171.988281 175.78125 171.59375 175.824219 171.195312 175.832031 L 105.726562 175.832031 C 105.328125 175.824219 104.933594 175.78125 104.542969 175.699219 C 104.15625 175.613281 103.777344 175.496094 103.410156 175.339844 C 103.042969 175.179688 102.695312 174.992188 102.367188 174.765625 C 102.035156 174.542969 101.730469 174.289062 101.453125 174.003906 C 101.171875 173.71875 100.921875 173.410156 100.703125 173.078125 C 100.484375 172.746094 100.296875 172.394531 100.144531 172.027344 C 99.996094 171.65625 99.878906 171.277344 99.804688 170.886719 C 99.726562 170.496094 99.6875 170.097656 99.6875 169.699219 C 99.6875 169.300781 99.726562 168.90625 99.804688 168.515625 C 99.878906 168.125 99.996094 167.746094 100.144531 167.375 C 100.296875 167.007812 100.484375 166.65625 100.703125 166.324219 C 100.921875 165.992188 101.171875 165.683594 101.453125 165.398438 C 101.730469 165.113281 102.035156 164.859375 102.367188 164.636719 C 102.695312 164.410156 103.042969 164.21875 103.410156 164.0625 C 103.777344 163.90625 104.15625 163.785156 104.542969 163.703125 C 104.933594 163.621094 105.328125 163.578125 105.726562 163.570312 Z M 99.597656 138.007812 C 99.597656 137.605469 99.632812 137.207031 99.710938 136.8125 C 99.789062 136.417969 99.90625 136.03125 100.058594 135.660156 C 100.210938 135.289062 100.402344 134.933594 100.625 134.597656 C 100.847656 134.261719 101.101562 133.953125 101.386719 133.667969 C 101.671875 133.382812 101.980469 133.128906 102.316406 132.90625 C 102.652344 132.683594 103.003906 132.492188 103.378906 132.339844 C 103.75 132.1875 104.132812 132.070312 104.53125 131.992188 C 104.925781 131.914062 105.324219 131.878906 105.726562 131.878906 L 147.410156 131.878906 C 147.8125 131.878906 148.210938 131.917969 148.609375 131.996094 C 149.003906 132.074219 149.386719 132.191406 149.757812 132.34375 C 150.128906 132.5 150.484375 132.6875 150.816406 132.910156 C 151.152344 133.136719 151.460938 133.390625 151.746094 133.675781 C 152.03125 133.957031 152.285156 134.269531 152.507812 134.601562 C 152.730469 134.9375 152.921875 135.292969 153.074219 135.664062 C 153.230469 136.035156 153.34375 136.417969 153.425781 136.8125 C 153.503906 137.207031 153.542969 137.605469 153.542969 138.007812 C 153.542969 138.410156 153.503906 138.808594 153.425781 139.203125 C 153.34375 139.597656 153.230469 139.984375 153.074219 140.355469 C 152.921875 140.726562 152.730469 141.078125 152.507812 141.414062 C 152.285156 141.75 152.03125 142.058594 151.746094 142.34375 C 151.460938 142.628906 151.152344 142.882812 150.816406 143.105469 C 150.484375 143.328125 150.128906 143.519531 149.757812 143.671875 C 149.386719 143.828125 149.003906 143.941406 148.609375 144.019531 C 148.210938 144.097656 147.8125 144.140625 147.410156 144.140625 L 105.726562 144.140625 C 105.324219 144.136719 104.925781 144.097656 104.53125 144.019531 C 104.136719 143.9375 103.753906 143.820312 103.382812 143.667969 C 103.011719 143.511719 102.660156 143.324219 102.324219 143.101562 C 101.992188 142.875 101.683594 142.621094 101.398438 142.339844 C 101.113281 142.054688 100.859375 141.746094 100.636719 141.410156 C 100.414062 141.074219 100.222656 140.722656 100.070312 140.351562 C 99.914062 139.980469 99.796875 139.597656 99.71875 139.203125 C 99.640625 138.808594 99.597656 138.410156 99.597656 138.007812 Z M 105.726562 195.324219 L 182.71875 195.324219 C 183.117188 195.332031 183.511719 195.375 183.902344 195.457031 C 184.292969 195.539062 184.671875 195.660156 185.039062 195.816406 C 185.40625 195.972656 185.753906 196.164062 186.082031 196.390625 C 186.410156 196.613281 186.714844 196.867188 186.996094 197.152344 C 187.273438 197.4375 187.523438 197.746094 187.746094 198.078125 C 187.964844 198.410156 188.148438 198.761719 188.300781 199.128906 C 188.453125 199.5 188.566406 199.878906 188.644531 200.269531 C 188.71875 200.660156 188.757812 201.054688 188.757812 201.453125 C 188.757812 201.851562 188.71875 202.246094 188.644531 202.640625 C 188.566406 203.03125 188.453125 203.410156 188.300781 203.777344 C 188.148438 204.148438 187.964844 204.5 187.746094 204.832031 C 187.523438 205.164062 187.273438 205.472656 186.996094 205.757812 C 186.714844 206.039062 186.410156 206.292969 186.082031 206.519531 C 185.753906 206.742188 185.40625 206.933594 185.039062 207.089844 C 184.671875 207.246094 184.292969 207.367188 183.902344 207.449219 C 183.511719 207.535156 183.117188 207.578125 182.71875 207.585938 L 105.726562 207.585938 C 105.328125 207.578125 104.933594 207.535156 104.542969 207.449219 C 104.15625 207.367188 103.777344 207.246094 103.410156 207.089844 C 103.042969 206.933594 102.695312 206.742188 102.367188 206.519531 C 102.035156 206.292969 101.730469 206.039062 101.453125 205.757812 C 101.171875 205.472656 100.921875 205.164062 100.703125 204.832031 C 100.484375 204.5 100.296875 204.148438 100.148438 203.777344 C 99.996094 203.410156 99.882812 203.03125 99.804688 202.640625 C 99.726562 202.246094 99.691406 201.851562 99.691406 201.453125 C 99.691406 201.054688 99.726562 200.660156 99.804688 200.269531 C 99.882812 199.878906 99.996094 199.5 100.148438 199.128906 C 100.296875 198.761719 100.484375 198.410156 100.703125 198.078125 C 100.921875 197.746094 101.171875 197.4375 101.453125 197.152344 C 101.730469 196.867188 102.035156 196.613281 102.367188 196.390625 C 102.695312 196.164062 103.042969 195.972656 103.410156 195.816406 C 103.777344 195.660156 104.15625 195.539062 104.542969 195.457031 C 104.933594 195.375 105.328125 195.332031 105.726562 195.324219 Z M 208.222656 239.335938 L 105.726562 239.335938 C 105.324219 239.335938 104.929688 239.296875 104.535156 239.21875 C 104.140625 239.136719 103.757812 239.019531 103.386719 238.867188 C 103.015625 238.710938 102.664062 238.523438 102.328125 238.296875 C 101.996094 238.074219 101.6875 237.820312 101.402344 237.535156 C 101.121094 237.25 100.867188 236.941406 100.644531 236.609375 C 100.421875 236.273438 100.234375 235.921875 100.078125 235.550781 C 99.925781 235.179688 99.808594 234.796875 99.730469 234.402344 C 99.652344 234.007812 99.613281 233.609375 99.613281 233.207031 C 99.613281 232.804688 99.652344 232.40625 99.730469 232.015625 C 99.808594 231.621094 99.925781 231.238281 100.078125 230.867188 C 100.234375 230.496094 100.421875 230.140625 100.644531 229.808594 C 100.867188 229.472656 101.121094 229.164062 101.402344 228.878906 C 101.6875 228.59375 101.996094 228.339844 102.328125 228.117188 C 102.664062 227.894531 103.015625 227.703125 103.386719 227.550781 C 103.757812 227.394531 104.140625 227.277344 104.535156 227.199219 C 104.929688 227.117188 105.324219 227.078125 105.726562 227.078125 L 208.222656 227.078125 C 208.621094 227.082031 209.015625 227.125 209.40625 227.207031 C 209.796875 227.292969 210.175781 227.410156 210.542969 227.566406 C 210.910156 227.722656 211.257812 227.914062 211.589844 228.136719 C 211.917969 228.363281 212.226562 228.617188 212.503906 228.902344 C 212.785156 229.183594 213.035156 229.492188 213.257812 229.828125 C 213.476562 230.160156 213.664062 230.511719 213.8125 230.878906 C 213.964844 231.25 214.082031 231.628906 214.15625 232.019531 C 214.234375 232.414062 214.273438 232.808594 214.273438 233.207031 C 214.273438 233.605469 214.234375 234.003906 214.15625 234.394531 C 214.082031 234.785156 213.964844 235.167969 213.8125 235.535156 C 213.664062 235.90625 213.476562 236.257812 213.257812 236.589844 C 213.035156 236.921875 212.785156 237.230469 212.503906 237.515625 C 212.226562 237.800781 211.917969 238.054688 211.589844 238.277344 C 211.257812 238.503906 210.910156 238.691406 210.542969 238.847656 C 210.175781 239.003906 209.796875 239.125 209.40625 239.207031 C 209.015625 239.289062 208.621094 239.332031 208.222656 239.335938 Z M 208.222656 239.335938 " fill-opacity="1" fill-rule="nonzero"/></g><path fill="#ffffff" d="M 331.925781 92.585938 C 328.746094 89.027344 325.238281 85.832031 321.394531 83.003906 C 317.554688 80.171875 313.460938 77.769531 309.121094 75.789062 C 299.394531 85.839844 250.625 135.871094 243.160156 143.527344 C 244.691406 144.089844 246.183594 144.746094 247.636719 145.488281 C 250.703125 147.039062 253.613281 148.84375 256.367188 150.902344 C 259.121094 152.957031 261.675781 155.230469 264.039062 157.730469 C 266.398438 160.226562 268.53125 162.90625 270.429688 165.769531 C 272.328125 168.636719 273.964844 171.640625 275.34375 174.789062 L 341.609375 106.746094 C 338.960938 101.628906 335.734375 96.90625 331.925781 92.585938 Z M 331.925781 92.585938 " fill-opacity="1" fill-rule="nonzero"/><path fill="#ffffff" d="M 225.078125 194.40625 C 225.386719 194.679688 225.742188 194.867188 226.144531 194.964844 C 226.546875 195.0625 226.945312 195.058594 227.347656 194.957031 L 265.414062 182.820312 C 265.105469 181.898438 264.800781 181.042969 264.433594 180.183594 C 263.113281 177.070312 261.480469 174.136719 259.53125 171.375 C 257.582031 168.613281 255.363281 166.089844 252.875 163.804688 C 250.382812 161.523438 247.679688 159.527344 244.761719 157.824219 C 241.839844 156.121094 238.773438 154.746094 235.5625 153.703125 L 224.464844 192.074219 C 224.34375 192.492188 224.339844 192.90625 224.449219 193.324219 C 224.558594 193.742188 224.769531 194.101562 225.078125 194.40625 Z M 225.078125 194.40625 " fill-opacity="1" fill-rule="nonzero"/><path fill="#ffffff" d="M 333.703125 56.847656 C 327.261719 56.386719 322.148438 62.222656 318.132812 66.535156 C 321.503906 68.28125 324.730469 70.261719 327.820312 72.472656 C 330.90625 74.679688 333.824219 77.097656 336.566406 79.722656 C 339.308594 82.34375 341.855469 85.152344 344.199219 88.136719 C 346.542969 91.125 348.664062 94.261719 350.558594 97.550781 L 355.585938 92.402344 C 367.671875 77.910156 350.386719 56.261719 333.703125 56.847656 Z M 333.703125 56.847656 " fill-opacity="1" fill-rule="nonzero"/></svg>