<svg xmlns="http://www.w3.org/2000/svg" xmlns:xlink="http://www.w3.org/1999/xlink" width="500" zoomAndPan="magnify" viewBox="0 0 375 374.999991" height="500" preserveAspectRatio="xMidYMid meet" version="1.0"><defs><clipPath id="998160a911"><path d="M 0 8.90625 L 375 8.90625 L 375 365.90625 L 0 365.90625 Z M 0 8.90625 " clip-rule="nonzero"/></clipPath></defs><g clip-path="url(#998160a911)"><path fill="#b5b5b5" d="M 375.023438 207.589844 C 223.125 211.238281 220.167969 214.195312 216.519531 366.09375 C 212.875 214.195312 209.917969 211.238281 58.019531 207.589844 C 209.917969 203.945312 212.875 200.988281 216.519531 49.089844 C 220.175781 200.988281 223.125 203.945312 375.023438 207.589844 Z M 88.183594 8.90625 C 86.425781 82.09375 85.003906 83.515625 11.816406 85.273438 C 85.003906 87.03125 86.425781 88.453125 88.183594 161.640625 C 89.941406 88.453125 91.367188 87.03125 164.550781 85.273438 C 91.375 83.515625 89.941406 82.09375 88.183594 8.90625 Z M 48.421875 248.6875 C 47.304688 295.066406 46.402344 295.96875 0.0234375 297.085938 C 46.402344 298.199219 47.304688 299.101562 48.421875 345.480469 C 49.535156 299.101562 50.4375 298.199219 96.816406 297.085938 C 50.429688 295.96875 49.527344 295.066406 48.421875 248.6875 Z M 48.421875 248.6875 " fill-opacity="1" fill-rule="nonzero"/></g></svg>